<svg width="235" height="29" viewBox="0 0 235 29" fill="none" xmlns="http://www.w3.org/2000/svg">
<path d="M0.674805 26V1.25391H7.16895V20.7363H17.252V26H0.674805ZM26.5488 1.25391V26H20.0547V1.25391H26.5488ZM29.8984 26V1.25391H36.3926V11.3711H36.7344L44.3906 1.25391H52.0127L43.5361 12.2939L52.1836 26H44.3906L38.6826 16.6006L36.3926 19.54V26H29.8984ZM54.0635 26V1.25391H71.7344V6.51758H60.5576V10.9951H70.8115V16.2588H60.5576V20.7363H71.7002V26H54.0635ZM75.1523 26V1.25391H81.6465V20.7363H91.7295V26H75.1523ZM101.026 1.25391V26H94.5322V1.25391H101.026ZM128.165 13.627C128.165 21.8643 122.884 26.3418 116.202 26.3418C109.452 26.3418 104.222 21.813 104.205 13.627C104.222 5.38965 109.452 0.912109 116.202 0.912109C122.884 0.912109 128.165 5.38965 128.165 13.627ZM110.904 13.627C110.904 18.1729 112.784 20.6509 116.202 20.668C119.586 20.6509 121.483 18.1729 121.466 13.627C121.483 9.06396 119.586 6.58594 116.202 6.58594C112.784 6.58594 110.904 9.06396 110.904 13.627ZM152.638 1.25391V26H147.203L138.009 12.6357H137.838V26H131.344V1.25391H136.881L145.938 14.5498H146.144V1.25391H152.638ZM163.844 26V28.6367H154.293V26H163.844ZM169.898 26.1953C166.471 26.1953 164.439 23.9785 164.43 20.7266C164.439 17.4648 166.48 15.2578 169.898 15.2578C172.965 15.2578 174.918 17.0254 174.957 19.75H171.52C171.412 18.6367 170.826 18.0215 169.957 18.0312C168.902 18.0215 168.209 18.9199 168.199 20.6875C168.209 22.4746 168.893 23.373 169.957 23.3828C170.807 23.373 171.432 22.7676 171.52 21.6445H174.957C174.898 24.4082 172.994 26.1953 169.898 26.1953ZM180.25 20.0039V26H176.559V11.8594H180.113V17.3867H180.23C180.699 16.0488 181.852 15.2578 183.414 15.2578C185.66 15.2578 187.125 16.8887 187.125 19.2422V26H183.434V20.0039C183.434 18.9102 182.867 18.2559 181.852 18.2656C180.885 18.2559 180.25 18.9199 180.25 20.0039ZM188.551 23.0703C188.551 20.7363 190.299 19.8184 192.457 19.6914C193.258 19.6523 194.508 19.6133 194.938 19.5938V18.7344C194.928 18.1484 194.449 17.8164 193.727 17.8164C192.975 17.8164 192.467 18.1387 192.379 18.8125H188.961C189.098 16.8887 190.66 15.2578 193.785 15.2578C196.725 15.2578 198.629 16.7129 198.629 18.7539V26H195.172V24.5156H195.094C194.459 25.668 193.424 26.166 192.008 26.1758C189.986 26.166 188.551 25.1797 188.551 23.0703ZM192.027 22.8555C192.037 23.4902 192.516 23.8223 193.199 23.8125C194.127 23.8223 194.967 23.2266 194.957 22.2305V21.6641C194.586 21.6738 193.609 21.7129 193.121 21.7617C192.457 21.8496 192.037 22.2793 192.027 22.8555ZM205.562 26.1953C202.135 26.1953 200.104 23.9785 200.094 20.7266C200.104 17.4648 202.145 15.2578 205.562 15.2578C208.629 15.2578 210.582 17.0254 210.621 19.75H207.184C207.076 18.6367 206.49 18.0215 205.621 18.0312C204.566 18.0215 203.873 18.9199 203.863 20.6875C203.873 22.4746 204.557 23.373 205.621 23.3828C206.471 23.373 207.096 22.7676 207.184 21.6445H210.621C210.562 24.4082 208.658 26.1953 205.562 26.1953ZM215.914 20.0039V26H212.223V11.8594H215.777V17.3867H215.895C216.363 16.0488 217.516 15.2578 219.078 15.2578C221.324 15.2578 222.789 16.8887 222.789 19.2422V26H219.098V20.0039C219.098 18.9102 218.531 18.2559 217.516 18.2656C216.549 18.2559 215.914 18.9199 215.914 20.0039ZM224.215 23.0703C224.215 20.7363 225.963 19.8184 228.121 19.6914C228.922 19.6523 230.172 19.6133 230.602 19.5938V18.7344C230.592 18.1484 230.113 17.8164 229.391 17.8164C228.639 17.8164 228.131 18.1387 228.043 18.8125H224.625C224.762 16.8887 226.324 15.2578 229.449 15.2578C232.389 15.2578 234.293 16.7129 234.293 18.7539V26H230.836V24.5156H230.758C230.123 25.668 229.088 26.166 227.672 26.1758C225.65 26.166 224.215 25.1797 224.215 23.0703ZM227.691 22.8555C227.701 23.4902 228.18 23.8223 228.863 23.8125C229.791 23.8223 230.631 23.2266 230.621 22.2305V21.6641C230.25 21.6738 229.273 21.7129 228.785 21.7617C228.121 21.8496 227.701 22.2793 227.691 22.8555Z" fill="black"/>
</svg>
